<?xml version="1.0" encoding="UTF-8"?>
<svg width="247px" height="215px" viewBox="0 0 247 215" version="1.1" xmlns="http://www.w3.org/2000/svg" xmlns:xlink="http://www.w3.org/1999/xlink">
    <!-- Generator: Sketch 42 (36781) - http://www.bohemiancoding.com/sketch -->
    <title>Combined Shape</title>
    <desc>Created with Sketch.</desc>
    <defs></defs>
    <g id="Old-Icon-Import-(2016)" stroke="none" stroke-width="1" fill="none" fill-rule="evenodd" stroke-linecap="round" stroke-linejoin="round">
        <path d="M65,24.499 C65,21.462 62.537,19 59.5,19 C56.463,19 54,21.462 54,24.499 C54,27.536 56.463,29.998 59.5,29.998 C62.537,29.998 65,27.536 65,24.499 Z M46,24.499 C46,21.462 43.537,19 40.5,19 C37.463,19 35,21.462 35,24.499 C35,27.536 37.463,29.998 40.5,29.998 C43.537,29.998 46,27.536 46,24.499 Z M27,24.499 C27,21.462 24.537,19 21.5,19 C18.463,19 16,21.462 16,24.499 C16,27.536 18.463,29.998 21.5,29.998 C24.537,29.998 27,27.536 27,24.499 Z M2,46 L245,46 L245,198 C245,206.284 237.8,213 229.516,213 L16.516,213 C8.231,213 2,206.284 2,198 L2,46 Z M229.516,2 C237.8,2 245,8.716 245,17 L245,46 L2,46 L2,17 C2,8.716 8.232,2 16.516,2 L229.516,2 Z M81.58825,113.03925 L46.35625,77.80725 C42.61225,74.06425 36.55025,74.06425 32.80725,77.80725 C29.06425,81.54825 29.06425,87.61525 32.80725,91.35625 L61.26425,119.81425 L32.80725,148.27125 C29.06425,152.01225 29.06425,158.08025 32.80725,161.82025 C36.55025,165.56425 42.61225,165.56425 46.35625,161.82025 L81.58825,126.58825 C85.33025,122.84825 85.33025,116.78025 81.58825,113.03925 Z M130.333,158 C130.333,154.287 127.329,151 123.625,151 L96.707,151 C93.003,151 90,154.287 90,158 C90,161.712 93.003,165 96.707,165 L123.625,165 C127.329,165 130.333,161.712 130.333,158 Z" id="Combined-Shape" stroke="#1074BD" stroke-width="4"></path>
    </g>
</svg>